P1
# SPDX-FileType: IMAGE
# SPDX-FileCopyrightText: 2014-2024 The Adlib Tracker 2 Authors
# SPDX-License-Identifier: GPL-3.0-or-later
# SPDX-FileNotice: Slightly modified standard VGA font (code page 437)
256 128
0000000000000000000000000000000000000000000000000000000000000000111111110000000011111111000000000000000000000000000000000000000000000000000000000000000000000000000000000000000000000000000000000000000000000000000000000000000000000000000000000000000000000000
0000000000000000000000000000000000000000000000000000000000000000111111110000000011111111000000000000000000000000000000000000000010000000000000100000000000000000000000000111110000000000000000000000000000000000000000000000000000000000000000000000000000000000
0000000001111110011111100000000000000000000000000000000000000000111111110000000011111111000111100011110000111111011111110000000011000000000001100001100001100110011111111100011000000000000110000001100000011000000000000000000000000000000000000000000000000000
0000000010000001111111110000000000000000000110000001100000000000111111110000000011111111000001100110011000110011011000110001100011100000000011100011110001100110110110110110000000000000001111000011110000011000000000000000000000000000000000000000000000000000
0000000010100101110110110110110000010000001111000011110000000000111111110000000011111111000011100110011000111111011111110001100011110000000111100111111001100110110110110011100000000000011111100111111000011000000000000000000000000000000000000001000011111110
0000000010000001111111111111111000111000001111000111111000000000111111110011110011000011000110100110011000110000011000111101101111111000001111100001100001100110110110110110110000000000000110000001100000011000000110000011000000000000001010000011100011111110
0000000010000001111111111111111001111100111001111111111100011000111001110110011010011001011110000110011000110000011000110011110011111110111111100001100001100110011110111100011000000000000110000001100000011000000011000110000011000000011011000011100001111100
0000000010100101110110111111111011111110111001111111111100111100110000110100001010111101110011000011110000110000011000111110011111111000001111100001100001100110000110111100011000000000000110000001100000011000111111101111111011000000111111100111110001111100
0000000010011001111001111111111001111100111001110111111000111100110000110100001010111101110011000001100000110000011000110011110011110000000111100111111001100110000110110110110011111110011111100001100000011000000011000110000011000000011011000111110000111000
0000000010000001111111110111110000111000000110000001100000011000111001110110011010011001110011000111111001110000011001111101101111100000000011100011110000000000000110110011100011111110001111000001100001111110000110000011000011111110001010001111111000111000
0000000010000001111111110011100000010000000110000001100000000000111111110011110011000011110011000001100011110000111001110001100011000000000001100001100001100110000110110000110011111110000110000001100000111100000000000000000000000000000000001111111000010000
0000000001111110011111100001000000000000001111000011110000000000111111110000000011111111011110000001100011100000111001100001100010000000000000100000000001100110000110111100011011111110011111100001100000011000000000000000000000000000000000000000000000000000
0000000000000000000000000000000000000000000000000000000000000000111111110000000011111111000000000000000000000000110000000000000000000000000000000000000000000000000000000111110000000000000000000000000000000000000000000000000000000000000000000000000000000000
0000000000000000000000000000000000000000000000000000000000000000111111110000000011111111000000000000000000000000000000000000000000000000000000000000000000000000000000000000000000000000000000000000000000000000000000000000000000000000000000000000000000000000
0000000000000000000000000000000000000000000000000000000000000000111111110000000011111111000000000000000000000000000000000000000000000000000000000000000000000000000000000000000000000000000000000000000000000000000000000000000000000000000000000000000000000000
0000000000000000000000000000000000000000000000000000000000000000111111110000000011111111000000000000000000000000000000000000000000000000000000000000000000000000000000000000000000000000000000000000000000000000000000000000000000000000000000000000000000000000
0000000000000000000000000000000000011000000000000000000000000000000000000000000000000000000000000000000000000000000000000000000000000000000000000000000000000000000000000000000000000000000000000000000000000000000000000000000000000000000000000000000000000000
0000000000000000011001100000000000011000000000000000000000110000000000000000000000000000000000000000000000000000000000000000000000000000000000000000000000000000000000000000000000000000000000000000000000000000000000000000000000000000000000000000000000000000
0000000000011000011001100000000001111100000000000011100000110000000011000011000000000000000000000000000000000000000000000000000001111100000110000111110001111100000011001111111000111000111111100111110001111100000000000000000000000000000000000000000001111100
0000000000111100011001100110110011000110000000000110110000110000000110000001100000000000000000000000000000000000000000000000000011000110001110001100011011000110000111001100000001100000110001101100011011000110000000000000000000000110000000000110000011000110
0000000000111100001001000110110011000010110000100110110001100000001100000000110000000000000000000000000000000000000000000000001011000110011110000000011000000110001111001100000011000000000001101100011011000110000110000001100000001100000000000011000011000110
0000000000111100000000001111111011000000110001100011100000000000001100000000110001100110000110000000000000000000000000000000011011001110000110000000110000000110011011001100000011000000000001101100011011000110000110000001100000011000011111100001100000001100
0000000000011000000000000110110001111100000011000111011000000000001100000000110000111100000110000000000000000000000000000000110011011110000110000001100000111100110011001111110011111100000011000111110001111110000000000000000000110000000000000000110000011000
0000000000011000000000000110110000000110000110001101110000000000001100000000110011111111011111100000000011111110000000000001100011110110000110000011000000000110111111100000011011000110000110001100011000000110000000000000000001100000000000000000011000011000
0000000000011000000000000110110000000110001100001100110000000000001100000000110000111100000110000000000000000000000000000011000011100110000110000110000000000110000011000000011011000110001100001100011000000110000000000000000000110000011111100000110000011000
0000000000000000000000001111111010000110011000001100110000000000001100000000110001100110000110000001100000000000000000000110000011000110000110001100000000000110000011000000011011000110001100001100011000000110000110000001100000011000000000000001100000000000
0000000000011000000000000110110011000110110001101100110000000000000110000001100000000000000000000001100000000000000110001100000011000110000110001100011011000110000011001100011011000110001100001100011000001100000110000001100000001100000000000011000000011000
0000000000011000000000000110110001111100100001100111011000000000000011000011000000000000000000000001100000000000000110001000000001111100011111101111111001111100000111100111110001111100001100000111110001111000000000000011000000000110000000000110000000011000
0000000000000000000000000000000000011000000000000000000000000000000000000000000000000000000000000011000000000000000000000000000000000000000000000000000000000000000000000000000000000000000000000000000000000000000000000000000000000000000000000000000000000000
0000000000000000000000000000000000011000000000000000000000000000000000000000000000000000000000000000000000000000000000000000000000000000000000000000000000000000000000000000000000000000000000000000000000000000000000000000000000000000000000000000000000000000
0000000000000000000000000000000000000000000000000000000000000000000000000000000000000000000000000000000000000000000000000000000000000000000000000000000000000000000000000000000000000000000000000000000000000000000000000000000000000000000000000000000000000000
0000000000000000000000000000000000000000000000000000000000000000000000000000000000000000000000000000000000000000000000000000000000000000000000000000000000000000000000000000000000000000000000000000000000000000000000000000000000000000000000000000000000000000
0000000000000000000000000000000000000000000000000000000000000000000000000000000000000000000000000000000000000000000000000000000000000000000000000000000000000000000000000000000000000000000000000000000000000000000000000000000000000000000000000001000000000000
0000000000000000000000000000000000000000000000000000000000000000000000000000000000000000000000000000000000000000000000000000000000000000000000000000000000000000000000000000000000000000000000000000000000000000000000000000000000000000000000000011100000000000
0000000000010000111111000011110011111000111111101111111000111100110001100011110000011110111001101111000011000110110001100111110011111100011111001111110001111100011111101100011011000110110001101100011001100110111111100011110000000000001111000110110000000000
0111110000111000011001100110011001101100011001100110011001100110110001100001100000001100011001100110000011101110111001101100011001100110110001100110011011000110011111101100011011000110110001101100011001100110110001100011000010000000000011001100011000000000
1100011001101100011001101100001001100110011000100110001011000010110001100001100000001100011001100110000011111110111101101100011001100110110001100110011011000110010110101100011011000110110001100110110001100110100001100011000011000000000011000000000000000000
1100011011000110011001101100000001100110011010000110100011000000110001100001100000001100011011000110000011111110111111101100011001100110110001100110011001100000000110001100011011000110110001100111110001100110000011000011000011100000000011000000000000000000
1101111011000110011111001100000001100110011110000111100011000000111111100001100000001100011110000110000011010110110111101100011001111100110001100111110000111000000110001100011011000110110101100011100000111100000110000011000001110000000011000000000000000000
1101111011111110011001101100000001100110011010000110100011011110110001100001100000001100011110000110000011000110110011101100011001100000110001100110110000001100000110001100011011000110110101100011100000011000001100000011000000111000000011000000000000000000
1101111011000110011001101100000001100110011000000110000011000110110001100001100011001100011011000110000011000110110001101100011001100000110001100110011000000110000110001100011011000110110101100111110000011000011000000011000000011100000011000000000000000000
1101110011000110011001101100001001100110011000100110000011000110110001100001100011001100011001100110001011000110110001101100011001100000110101100110011011000110000110001100011001101100111111100110110000011000110000100011000000001110000011000000000000000000
1100000011000110011001100110011001101100011001100110000001100110110001100001100011001100011001100110011011000110110001101100011001100000110111100110011011000110000110001100011000111000111011101100011000011000110001100011000000000110000011000000000000000000
0111110011000110111111000011110011111000111111101111000000111010110001100011110001111000111001101111111011000110110001100111110011110000011111001110011001111100001111000111110000010000011011001100011000111100111111100011110000000010001111000000000000000000
0000000000000000000000000000000000000000000000000000000000000000000000000000000000000000000000000000000000000000000000000000000000000000000011000000000000000000000000000000000000000000000000000000000000000000000000000000000000000000000000000000000000000000
0000000000000000000000000000000000000000000000000000000000000000000000000000000000000000000000000000000000000000000000000000000000000000000011100000000000000000000000000000000000000000000000000000000000000000000000000000000000000000000000000000000011111111
0000000000000000000000000000000000000000000000000000000000000000000000000000000000000000000000000000000000000000000000000000000000000000000000000000000000000000000000000000000000000000000000000000000000000000000000000000000000000000000000000000000000000000
0000000000000000000000000000000000000000000000000000000000000000000000000000000000000000000000000000000000000000000000000000000000000000000000000000000000000000000000000000000000000000000000000000000000000000000000000000000000000000000000000000000000000000
0011000000000000000000000000000000000000000000000000000000000000000000000000000000000000000000000000000000000000000000000000000000000000000000000000000000000000000000000000000000000000000000000000000000000000000000000000000000000000000000000000000000000000
0011000000000000000000000000000000000000000000000000000000000000000000000000000000000000000000000000000000000000000000000000000000000000000000000000000000000000000000000000000000000000000000000000000000000000000000000000000000000000000000000000000000000000
0001100000000000111000000000000000011100000000000011100000000000111000000001100000000110111000000011100000000000000000000000000000000000000000000000000000000000000100000000000000000000000000000000000000000000000000000000111000011000011100000111011000000000
0000000000000000011000000000000000001100000000000110110000000000011000000001100000000110011000000001100000000000000000000000000000000000000000000000000000000000001100000000000000000000000000000000000000000000000000000001100000011000000110001101110000000000
0000000000000000011000000000000000001100000000000110010000000000011000000000000000000000011000000001100000000000000000000000000000000000000000000000000000000000001100000000000000000000000000000000000000000000000000000001100000011000000110000000000000010000
0000000001111000011110000111110000111100011111000110000001110110011011000011100000001110011001100001100011101100110111000111110011011100011101101101110001111100111111001100110001100110110001101100011011000110111111100001100000011000000110000000000000111000
0000000000001100011011001100011001101100110001101111000011001100011101100001100000000110011011000001100011111110011001101100011001100110110011000111011011000110001100001100110001100110110001100110110011000110110011000111000000000000000011100000000001101100
0000000001111100011001101100000011001100111111100110000011001100011001100001100000000110011110000001100011010110011001101100011001100110110011000110011001100000001100001100110001100110110101100011100011000110000110000001100000011000000110000000000011000110
0000000011001100011001101100000011001100110000000110000011001100011001100001100000000110011110000001100011010110011001101100011001100110110011000110000000111000001100001100110001100110110101100011100011000110001100000001100000011000000110000000000011000110
0000000011001100011001101100000011001100110000000110000011001100011001100001100000000110011011000001100011010110011001101100011001100110110011000110000000001100001100001100110001100110110101100011100011000110011000000001100000011000000110000000000011000110
0000000011001100011001101100011011001100110001100110000011001100011001100001100000000110011001100001100011010110011001101100011001100110110011000110000011000110001101101100110000111100111111100110110011000110110001100001100000011000000110000000000011111110
0000000001110110011111000111110001110110011111001111000001111100111001100011110000000110111001100011110011000110011001100111110001111100011111001111000001111100000111000111011000011000011011001100011001111110111111100000111000011000011100000000000000000000
0000000000000000000000000000000000000000000000000000000000001100000000000000000001100110000000000000000000000000000000000000000001100000000011000000000000000000000000000000000000000000000000000000000000000110000000000000000000000000000000000000000000000000
0000000000000000000000000000000000000000000000000000000011001100000000000000000001100110000000000000000000000000000000000000000001100000000011000000000000000000000000000000000000000000000000000000000000001100000000000000000000000000000000000000000000000000
0000000000000000000000000000000000000000000000000000000001111000000000000000000000111100000000000000000000000000000000000000000011110000000111100000000000000000000000000000000000000000000000000000000011111000000000000000000000000000000000000000000000000000
0000000000000000000000000000000000000000000000000000000000000000000000000000000000000000000000000000000000000000000000000000000000000000000000000000000000000000000000000000000000000000000000000000000000000000000000000000000000000000000000000000000000000000
0000000000000000000000000000000000000000000000000000000000000000000000000000000000000000000000000000000000000000000000000011100000011000000000000000000000000000000000000000000000000000000000000000000000000000000000000000000000000000000000000000000000000000
0000000000000000000011000001000000000000011000000011100000000000000100000000000001100000000000000001100001100000110001100110110000110000000000000000000000010000000000000110000000110000011000000000000011000110110001100001100000111000000000001111100000001110
0011110011001100000110000011100011001100001100000110110000000000001110001100011000110000011001100011110000110000000000000011100001100000000000000011111000111000110001100011000001111000001100001100011000000000000000000001100001101100011001101100110000011011
0110011000000000001100000110110000000000000110000011100000000000011011000000000000011000000000000110011000011000000100000000000000000000000000000110110001101100000000000001100011001100000110000000000001111100110001100011110001100100011001101100110000011000
1100001000000000000000000000000000000000000000000000000000111100000000000000000000000000000000000000000000000000001110000011100011111110000000001100110000000000000000000000000000000000000000000000000011000110110001100110011001100000001111001111100000011000
1100000011001100011111000111100001111000011110000111100001100110011111000111110001111100001110000011100000111000011011000110110001100110110011001100110001111100011111000111110011001100110011001100011011000110110001100110000011110000000110001100010000011000
1100000011001100110001100000110000001100000011000000110001100000110001101100011011000110000110000001100000011000110001101100011001100000011101101111111011000110110001101100011011001100110011001100011011000110110001100110000001100000011111101100110001111110
1100000011001100111111100111110001111100011111000111110001100000111111101111111011111110000110000001100000011000110001101100011001111100001101101100110011000110110001101100011011001100110011001100011011000110110001100110000001100000000110001101111000011000
1100001011001100110000001100110011001100110011001100110001100110110000001100000011000000000110000001100000011000111111101111111001100000011111101100110011000110110001101100011011001100110011001100011011000110110001100110011001100000011111101100110000011000
0110011011001100110000001100110011001100110011001100110000111100110000001100000011000000000110000001100000011000110001101100011001100000110110001100110011000110110001101100011011001100110011001100011011000110110001100011110001100000000110001100110000011000
0011110011001100110001101100110011001100110011001100110000001100110001101100011011000110000110000001100000011000110001101100011001100110110110001100110011000110110001101100011011001100110011001100011011000110110001100001100011100110000110001100110000011000
0000110001110110011111000111011001110110011101100111011000000110011111000111110001111100001111000011110000111100110001101100011011111110011011101100111001111100011111000111110001110110011101100111111001111100011111000001100011111100000110001100011000011000
0000011000000000000000000000000000000000000000000000000000111100000000000000000000000000000000000000000000000000000000000000000000000000000000000000000000000000000000000000000000000000000000000000011000000000000000000000000000000000000000000000000011011000
0111110000000000000000000000000000000000000000000000000000000000000000000000000000000000000000000000000000000000000000000000000000000000000000000000000000000000000000000000000000000000000000000000110000000000000000000000000000000000000000000000000001110000
0000000000000000000000000000000000000000000000000000000000000000000000000000000000000000000000000000000000000000000000000000000000000000000000000000000000000000000000000000000000000000000000000111100000000000000000000000000000000000000000000000000000000000
0000000000000000000000000000000000000000000000000000000000000000000000000000000000000000000000000000000000000000000000000000000000000000000000000000000000000000000000000000000000000000000000000000000000000000000000000000000000000000000000000000000000000000
0000000000000000000000000000000000000000011101100000000000000000000000000000000000000000000000000000000000000000000000000000000000010001010101011101110100011000000110000001100000110110000000000000000000110110001101100000000000110110001101100001100000000000
0001100000001100000110000001100000000000110111000011110000111000000000000000000000000000110000001100000000000000000000000000000001000100101010100111011100011000000110000001100000110110000000000000000000110110001101100000000000110110001101100001100000000000
0011000000011000001100000011000001110110000000000110110001101100001100000000000000000000110000001100000000011000000000000000000000010001010101011101110100011000000110000001100000110110000000000000000000110110001101100000000000110110001101100001100000000000
0110000000110000011000000110000011011100110001100110110001101100001100000000000000000000110000101100001000011000000000000000000001000100101010100111011100011000000110000001100000110110000000000000000000110110001101100000000000110110001101100001100000000000
0000000000000000000000000000000000000000111001100011111000111000000000000000000000000000110001101100011000000000000000000000000000010001010101011101110100011000000110000001100000110110000000000000000000110110001101100000000000110110001101100001100000000000
0111100000111000011111001100110011011100111101100000000000000000001100000000000000000000110011001100110000011000001101101101100001000100101010100111011100011000000110001111100000110110000000001111100011110110001101101111111011110110001101101111100000000000
0000110000011000110001101100110001100110111111100111111001111100001100001111111011111110000110000001100000011000011011000110110000010001010101011101110100011000000110000001100000110110000000000001100000000110001101100000011000000110001101100001100000000000
0111110000011000110001101100110001100110110111100000000000000000011000001100000000000110001100000011000000011000110110000011011001000100101010100111011100011000111110001111100011110110111111101111100011110110001101101111011011111110111111101111100011111000
1100110000011000110001101100110001100110110011100000000000000000110000001100000000000110011000000110011000111100011011000110110000010001010101011101110100011000000110000001100000110110001101100001100000110110001101100011011000000000000000000000000000011000
1100110000011000110001101100110001100110110001100000000000000000110001101100000000000110110111001100111000111100001101101101100001000100101010100111011100011000000110000001100000110110001101100001100000110110001101100011011000000000000000000000000000011000
1100110000011000110001101100110001100110110001100000000000000000110001101100000000000110100001101001111000111100000000000000000000010001010101011101110100011000000110000001100000110110001101100001100000110110001101100011011000000000000000000000000000011000
0111011000111100011111000111011001100110110001100000000000000000011111000000000000000000000011000011111000011000000000000000000001000100101010100111011100011000000110000001100000110110001101100001100000110110001101100011011000000000000000000000000000011000
0000000000000000000000000000000000000000000000000000000000000000000000000000000000000000000110000000011000000000000000000000000000010001010101011101110100011000000110000001100000110110001101100001100000110110001101100011011000000000000000000000000000011000
0000000000000000000000000000000000000000000000000000000000000000000000000000000000000000001111100000011000000000000000000000000001000100101010100111011100011000000110000001100000110110001101100001100000110110001101100011011000000000000000000000000000011000
0000000000000000000000000000000000000000000000000000000000000000000000000000000000000000000000000000000000000000000000000000000000010001010101011101110100011000000110000001100000110110001101100001100000110110001101100011011000000000000000000000000000011000
0000000000000000000000000000000000000000000000000000000000000000000000000000000000000000000000000000000000000000000000000000000001000100101010100111011100011000000110000001100000110110001101100001100000110110001101100011011000000000000000000000000000011000
0001100000011000000000000001100000000000000110000001100000110110001101100000000000110110000000000011011000000000001101100001100000110110000000000000000000110110000110000000000000000000001101100001100000011000000000001111111100000000111100000000111111111111
0001100000011000000000000001100000000000000110000001100000110110001101100000000000110110000000000011011000000000001101100001100000110110000000000000000000110110000110000000000000000000001101100001100000011000000000001111111100000000111100000000111111111111
0001100000011000000000000001100000000000000110000001100000110110001101100000000000110110000000000011011000000000001101100001100000110110000000000000000000110110000110000000000000000000001101100001100000011000000000001111111100000000111100000000111111111111
0001100000011000000000000001100000000000000110000001100000110110001101100000000000110110000000000011011000000000001101100001100000110110000000000000000000110110000110000000000000000000001101100001100000011000000000001111111100000000111100000000111111111111
0001100000011000000000000001100000000000000110000001100000110110001101100000000000110110000000000011011000000000001101100001100000110110000000000000000000110110000110000000000000000000001101100001100000011000000000001111111100000000111100000000111111111111
0001100000011000000000000001100000000000000110000001111100110110001101110011111111110111111111110011011111111111111101111111111100110110111111110000000000110110000111110001111100000000001101101111111100011000000000001111111100000000111100000000111111111111
0001100000011000000000000001100000000000000110000001100000110110001100000011000000000000000000000011000000000000000000000000000000110110000000000000000000110110000110000001100000000000001101100001100000011000000000001111111100000000111100000000111111111111
0001111111111111111111110001111111111111111111110001111100110111001111110011011111111111111101110011011111111111111101111111111111111111111111111111111100111111000111110001111100111111111111111111111111111000000111111111111111111111111100000000111100000000
0000000000000000000110000001100000000000000110000001100000110110000000000011011000000000001101100011011000000000001101100000000000000000000110000011011000000000000000000001100000110110001101100001100000000000000110001111111111111111111100000000111100000000
0000000000000000000110000001100000000000000110000001100000110110000000000011011000000000001101100011011000000000001101100000000000000000000110000011011000000000000000000001100000110110001101100001100000000000000110001111111111111111111100000000111100000000
0000000000000000000110000001100000000000000110000001100000110110000000000011011000000000001101100011011000000000001101100000000000000000000110000011011000000000000000000001100000110110001101100001100000000000000110001111111111111111111100000000111100000000
0000000000000000000110000001100000000000000110000001100000110110000000000011011000000000001101100011011000000000001101100000000000000000000110000011011000000000000000000001100000110110001101100001100000000000000110001111111111111111111100000000111100000000
0000000000000000000110000001100000000000000110000001100000110110000000000011011000000000001101100011011000000000001101100000000000000000000110000011011000000000000000000001100000110110001101100001100000000000000110001111111111111111111100000000111100000000
0000000000000000000110000001100000000000000110000001100000110110000000000011011000000000001101100011011000000000001101100000000000000000000110000011011000000000000000000001100000110110001101100001100000000000000110001111111111111111111100000000111100000000
0000000000000000000110000001100000000000000110000001100000110110000000000011011000000000001101100011011000000000001101100000000000000000000110000011011000000000000000000001100000110110001101100001100000000000000110001111111111111111111100000000111100000000
0000000000000000000110000001100000000000000110000001100000110110000000000011011000000000001101100011011000000000001101100000000000000000000110000011011000000000000000000001100000110110001101100001100000000000000110001111111111111111111100000000111100000000
0000000000000000000000000000000000000000000000000000000000000000000000000000000000000000000000000000000000000000000000000000000000000000000000000000000000000000000000000001100000000000000000000000000000000000000000000000000000000000000000000000000000000000
0000000000000000000000000000000000000000000000000000000000000000000000000000000000000000000000000000000000000000000000000000000000000000000000000000000000000000000000000001100000000000000000000011100000000000000000000000111111011000011100000000000000000000
0000000001111000111111100000000000000000000000000000000000000000000000000000000000111000000111100000000000000000000111000000000000000000000000000000000000000000000011100001100000000000000000000110110000000000000000000000110001101100110110000000000000000000
0000000011001100110001100000000011111110000000000000000000000000011111100011100001101100001100000000000000000011001100000111110000000000000000000011000000001100000110110001100000000000000000000110110000000000000000000000110001101100001100000000000000000000
0000000011001100110001101111111011000110000000000110011001110110000110000110110011000110000110000000000000000110011000001100011011111110000110000001100000011000000110110001100000011000000000000011100000000000000000000000110001101100011000000111110000000000
0111011011001100110000000110110001100000011111100110011011011100001111001100011011000110000011000111111001111110011000001100011000000000000110000000110000110000000110000001100000011000011101100000000000000000000000000000110001101100110010000111110000000000
1101110011011000110000000110110000110000110110000110011000011000011001101100011011000110001111101101101111011011011111001100011000000000011111100000011001100000000110000001100000000000110111000000000000000000000000000000110001101100111110000111110000000000
1101100011001100110000000110110000011000110110000110011000011000011001101111111001101100011001101101101111011011011000001100011011111110000110000000110000110000000110000001100001111110000000000000000000011000000000001110110000000000000000000111110000000000
1101100011000110110000000110110000110000110110000110011000011000011001101100011001101100011001101101101111110011011000001100011000000000000110000001100000011000000110001101100000000000011101100000000000011000000110000110110000000000000000000111110000000000
1101100011000110110000000110110001100000110110000111110000011000001111001100011001101100011001100111111001111110011000001100011000000000000000000011000000001100000110001101100000011000110111000000000000000000000000000110110000000000000000000111110000000000
1101110011000110110000000110110011000110110110000110000000011000000110000110110001101100011001100000000001100000001100001100011011111110000000000000000000000000000110001101100000011000000000000000000000000000000000000011110000000000000000000111110000000000
0111011011001100110000000110110011111110011100000110000000011000011111100011100011101110001111000000000011000000000111001100011000000000111111110111111001111110000110000111000000000000000000000000000000000000000000000001110000000000000000000000000000000000
0000000000000000000000000000000000000000000000001100000000000000000000000000000000000000000000000000000000000000000000000000000000000000000000000000000000000000000110000000000000000000000000000000000000000000000000000000000000000000000000000000000000000000
0000000000000000000000000000000000000000000000000000000000000000000000000000000000000000000000000000000000000000000000000000000000000000000000000000000000000000000110000000000000000000000000000000000000000000000000000000000000000000000000000000000000000000
0000000000000000000000000000000000000000000000000000000000000000000000000000000000000000000000000000000000000000000000000000000000000000000000000000000000000000000110000000000000000000000000000000000000000000000000000000000000000000000000000000000000000000
0000000000000000000000000000000000000000000000000000000000000000000000000000000000000000000000000000000000000000000000000000000000000000000000000000000000000000000110000000000000000000000000000000000000000000000000000000000000000000000000000000000000000000
