P1
# SPDX-FileType: IMAGE
# SPDX-FileCopyrightText: 2014-2024 The Adlib Tracker 2 Authors
# SPDX-License-Identifier: GPL-3.0-or-later
# SPDX-FileNotice: Slightly modified standard CGA font (code page 437)
256 64
0000000010000000101000001010100010101010001110000001000000000000111111110000000011111111000011110011110000111111011111111001100110000000000000100001100001100110011111110011111000000000000110000001100000011000000000000000000000000000000000000000000000000000
0000000010000000101000001010100010101010011111000001000000000000111111110011110011000011000001110110011000110011011000110101101011100000000011100011110001100110110110110110001100000000001111000011110000011000000110000011000000000000001001000001100011111111
0000000010000000101000001010100010101010001110000011100000011000111001110110011010011001000011110110011000111111011111110011110011111000001111100111111001100110110110110011100000000000011111100111111000011000000011000110000011000000011001100011110011111111
1010101010101010101010101010101010101010111111100111110000111100110000110100001010111101011111010110011000110000011000111110011111111110111111100001100001100110011110110110110000000000000110000001100000011000111111101111111011000000111111110111111001111110
0000000010000000101000001010100010101010111111101111111000111100110000110100001010111101110011000011110000110000011000111110011111111000001111100001100001100110000110110110110001111110011111100001100001111110000011000110000011000000011001101111111100111100
0000000010000000101000001010100010101010011111000111110000011000111001110110011010011001110011000001100001110000011001110011110011100000000011100111111000000000000110110011100001111110001111000001100000111100000110000011000011111110001001001111111100011000
0000000010000000101000001010100010101010001110000011100000000000111111110011110011000011110011000111111011110000111001100101101010000000000000100011110001100110000110111100110001111110000110000001100000011000000000000000000000000000000000000000000000000000
0000000000000000000000000000000000000000011111000111110000000000111111110000000011111111011110000001100011100000110000001001100100000000000000000001100000000000000000000111100000000000111111110000000000000000000000000000000000000000000000000000000000000000
0000000000110000011011000110110000110000000000000011100001100000000110000110000000000000000000000000000000000000000000000000011001111100001100000111100001111000000111001111110000111000111111000111100001111000000000000000000000011000000000000110000001111000
0000000001111000011011000110110001111100110001100110110001100000001100000011000001100110001100000000000000000000000000000000110011000110011100001100110011001100001111001100000001100000110011001100110011001100001100000011000000110000000000000011000011001100
0000000001111000011011001111111011000000110011000011100011000000011000000001100000111100001100000000000000000000000000000001100011001110001100000000110000001100011011001111100011000000000011001100110011001100001100000011000001100000111111000001100000001100
0000000000110000000000000110110001111000000110000111011000000000011000000001100011111111111111000000000011111100000000000011000011011110001100000011100000111000110011000000110011111000000110000111100001111100000000000000000011000000000000000000110000011000
0000000000110000000000001111111000001100001100001101110000000000011000000001100000111100001100000000000000000000000000000110000011110110001100000110000000001100111111100000110011001100001100001100110000001100000000000000000001100000000000000001100000110000
0000000000000000000000000110110011111000011001101100110000000000001100000011000001100110001100000011000000000000001100001100000011100110001100001100110011001100000011001100110011001100001100001100110000011000001100000011000000110000111111000011000000000000
0000000000110000000000000110110000110000110001100111011000000000000110000110000000000000000000000011000000000000001100001000000001111100111111001111110001111000000111100111100001111000001100000111100001110000001100000011000000011000000000000110000000110000
0000000000000000000000000000000000000000000000000000000000000000000000000000000000000000000000000110000000000000000000000000000000000000000000000000000000000000000000000000000000000000000000000000000000000000000000000110000000000000000000000000000000000000
0111110000110000111111000011110011111000111111101111111000111100110011000111100000011110111001101111000011000110110001100011100011111100011110001111110001111000111111001100110011001100110001101100011011001100111111100111100011000000011110000001000000000000
1100011001111000011001100110011001101100011000100110001001100110110011000011000000001100011001100110000011101110111001100110110001100110110011000110011011001100101101001100110011001100110001101100011011001100110001100110000001100000000110000011100000000000
1101111011001100011001101100000001100110011010000110100011000000110011000011000000001100011011000110000011111110111101101100011001100110110011000110011011100000001100001100110011001100110001100110110011001100100011000110000000110000000110000110110000000000
1101111011001100011111001100000001100110011110000111100011000000111111000011000000001100011110000110000011111110110111101100011001111100110011000111110001110000001100001100110011001100110101100011100001111000000110000110000000011000000110001100011000000000
1101111011111100011001101100000001100110011010000110100011001110110011000011000011001100011011000110001011010110110011101100011001100000110111000110110000011100001100001100110011001100111111100011100000110000001100100110000000001100000110000000000000000000
1100000011001100011001100110011001101100011000100110000001100110110011000011000011001100011001100110011011000110110001100110110001100000011110000110011011001100001100001100110001111000111011100110110000110000011001100110000000000110000110000000000000000000
0111100011001100111111000011110011111000111111101111000000111110110011000111100001111000111001101111111011000110110001100011100011110000000111001110011001111000011110001111110000110000110001101100011001111000111111100111100000000010011110000000000000000000
0000000000000000000000000000000000000000000000000000000000000000000000000000000000000000000000000000000000000000000000000000000000000000000000000000000000000000000000000000000000000000000000000000000000000000000000000000000000000000000000000000000011111111
0011000000000000111000000000000000011100000000000011100000000000111000000011000000001100111000000111000000000000000000000000000000000000000000000000000000000000000100000000000000000000000000000000000000000000000000000001110000011000111000000111011000000000
0011000000000000011000000000000000001100000000000110110000000000011000000000000000000000011000000011000000000000000000000000000000000000000000000000000000000000001100000000000000000000000000000000000000000000000000000011000000011000001100001101110000010000
0001100001111000011000000111100000001100011110000110000001110110011011000111000000001100011001100011000011001100111110000111100011011100011101101101110001111100011111001100110011001100110001101100011011001100111111000011000000011000001100000000000000111000
0000000000001100011111001100110001111100110011001111000011001100011101100011000000001100011011000011000011111110110011001100110001100110110011000111011011000000001100001100110011001100110101100110110011001100100110001110000000000000000111000000000001101100
0000000001111100011001101100000011001100111111000110000011001100011001100011000000001100011110000011000011111110110011001100110001100110110011000110011001111000001100001100110011001100111111100011100011001100001100000011000000011000001100000000000011000110
0000000011001100011001101100110011001100110000000110000001111100011001100011000011001100011011000011000011010110110011001100110001111100011111000110000000001100001101001100110001111000111111100110110001111100011001000011000000011000001100000000000011000110
0000000001110110110111000111100001110110011110001111000000001100111001100111100011001100111001100111100011000110110011000111100001100000000011001111000011111000000110000111011000110000011011001100011000001100111111000001110000011000111000000000000011111110
0000000000000000000000000000000000000000000000000000000011111000000000000000000001111000000000000000000000000000000000000000000011110000000111100000000000000000000000000000000000000000000000000000000011111000000000000000000000000000000000000000000000000000
0111100000000000000111000111111011001100111000000011000000000000011111101100110011100000110011000111110011100000110001100011000000011100000000000011111001111000000000000000000001111000000000000000000011000011110011000001100000111000110011001111100000001110
1100110011001100000000001100001100000000000000000011000000000000110000110000000000000000000000001100011000000000001110000011000000000000000000000110110011001100110011001110000011001100111000001100110000011000000000000001100001101100110011001100110000011011
1100000000000000011110000011110001111000011110000111100001111000001111000111100001111000011100000011100001110000011011000000000011111100011111111100110000000000000000000000000000000000000000000000000000111100110011000111111001100100011110001100110000011000
1100110011001100110011000000011000001100000011000000110011000000011001101100110011001100001100000001100000110000110001100111100001100000000011001111111001111000011110000111100011001100110011001100110001100110110011001100000011110000111111001111101000111100
0111100011001100111111000011111001111100011111000111110011000000011111101111110011111100001100000001100000110000111111101100110001111000011111111100110011001100110011001100110011001100110011001100110001100110110011001100000001100000001100001100011000011000
0001100011001100110000000110011011001100110011001100110001111000011000001100000011000000001100000001100000110000110001101111110001100000110011001100110011001100110011001100110011001100110011000111110000111100110011000111111011100110111111001100111100011000
0000110001111110011110000011111101111110011111100111111000001100001111000111100001111000011110000011110001111000110001101100110011111100011111111100111001111000011110000111100001111110011111100000110000011000011110000001100011111100001100001100011011011000
0111100000000000000000000000000000000000000000000000000000111000000000000000000000000000000000000000000000000000000000000000000000000000000000000000000000000000000000000000000000000000000000001111100000000000000000000001100000000000001100001100011101110000
0001110000111000000000000000000000000000111111000011110000111000001100000000000000000000110000111100001100011000000000000000000000100010010101011101101100011000000110000001100000110110000000000000000000110110001101100000000000110110001101100001100000000000
0000000000000000000111000001110011111000000000000110110001101100000000000000000000000000110001101100011000011000001100111100110010001000101010100111011100011000000110000001100000110110000000000000000000110110001101100000000000110110001101100001100000000000
0111100001110000000000000000000000000000110011000110110001101100001100000000000000000000110011001100110000000000011001100110011000100010010101011101101100011000000110001111100000110110000000001111100011110110001101101111111011110110001101101111100000000000
0000110000110000011110001100110011111000111011000011111000111000011000001111110011111100110111101101101100011000110011000011001110001000101010101110111000011000000110000001100000110110000000000001100000000110001101100000011000000110001101100001100000000000
0111110000110000110011001100110011001100111111000000000000000000110000001100000000001100001100110011011100011000011001100110011000100010010101011101101100011000111110001111100011110110111111101111100011110110001101101111011011111110111111101111100011111000
1100110000110000110011001100110011001100110111000111111001111100110011001100000000001100011001100110111100011000001100111100110010001000101010100111011100011000000110000001100000110110001101100001100000110110001101100011011000000000000000000000000000011000
0111111001111000011110000111111011001100110011000000000000000000011110000000000000000000110011001100111100011000000000000000000000100010010101011101101100011000000110000001100000110110001101100001100000110110001101100011011000000000000000000000000000011000
0000000000000000000000000000000000000000000000000000000000000000000000000000000000000000000011110000001100000000000000000000000010001000101010101110111000011000000110000001100000110110001101100001100000110110001101100011011000000000000000000000000000011000
0001100000011000000000000001100000000000000110000001100000110110001101100000000000110110000000000011011000000000001101100001100000110110000000000000000000110110000110000000000000000000001101100001100000011000000000001111111100000000111100000000111111111111
0001100000011000000000000001100000000000000110000001100000110110001101100000000000110110000000000011011000000000001101100001100000110110000000000000000000110110000110000000000000000000001101100001100000011000000000001111111100000000111100000000111111111111
0001100000011000000000000001100000000000000110000001111100110110001101110011111111110111111111110011011111111111111101111111111100110110111111110000000000110110000111110001111100000000001101101111111100011000000000001111111100000000111100000000111111111111
0001100000011000000000000001100000000000000110000001100000110110001100000011000000000000000000000011000000000000000000000000000000110110000000000000000000110110000110000001100000000000001101100001100000011000000000001111111100000000111100000000111111111111
0001111111111111111111110001111111111111111111110001111100110111001111110011011111111111111101110011011111111111111101111111111111111111111111111111111100111111000111110001111100111111111111111111111111111000000111111111111111111111111100000000111100000000
0000000000000000000110000001100000000000000110000001100000110110000000000011011000000000001101100011011000000000001101100000000000000000000110000011011000000000000000000001100000110110001101100001100000000000000110001111111111111111111100000000111100000000
0000000000000000000110000001100000000000000110000001100000110110000000000011011000000000001101100011011000000000001101100000000000000000000110000011011000000000000000000001100000110110001101100001100000000000000110001111111111111111111100000000111100000000
0000000000000000000110000001100000000000000110000001100000110110000000000011011000000000001101100011011000000000001101100000000000000000000110000011011000000000000000000001100000110110001101100001100000000000000110001111111111111111111100000000111100000000
0000000000000000000000000000000011111100000000000000000000000000111111000011100000111000000111000000000000000110001110000111100000000000001100000110000000011000000011100001100000110000000000000011100000000000000000000000111101111000011100000000000000000000
0000000001111000111111001111111011001100000000000110011001110110001100000110110001101100001100000000000000001100011000001100110011111100001100000011000000110000000110110001100000110000011101100110110000000000000000000000110001101100000110000000000000000000
0111011011001100110011000110110001100000011111100110011011011100011110001100011011000110000110000111111001111110110000001100110000000000111111000001100001100000000110110001100000000000110111000110110000000000000000000000110001101100001100000011110000000000
1101110011111000110000000110110000110000110110000110011000011000110011001111111011000110011111001101101111011011111110001100110011111100001100000011000000110000000110000001100011111100000000000011100000011000000000000000110001101100011000000011110000000000
1100100011001100110000000110110001100000110110000110011000011000110011001100011001101100110011001101101111011011110000001100110000000000001100000110000000011000000110000001100000000000011101100000000000011000000110001110110001101100011110000011110000000000
1101110011111000110000000110110011001100110110000111110000011000011110000110110001101100110011000111111001111110011000001100110011111100000000000000000000000000000110001101100000110000110111000000000000000000000000000110110000000000000000000011110000000000
0111011011000000110000000110110011111100011100000110000000011000001100000011100011101110011110000000000001100000001110001100110000000000111111001111110011111100000110001101100000110000000000000000000000000000000000000011110000000000000000000000000000000000
0000000011000000000000000000000000000000000000001100000000000000111111000000000000000000000000000000000011000000000000000000000000000000000000000000000000000000000110000111000000000000000000000000000000000000000000000001110000000000000000000000000000000000
