P1
# SPDX-FileType: IMAGE
# SPDX-FileCopyrightText: 2014-2024 The Adlib Tracker 2 Authors
# SPDX-License-Identifier: GPL-3.0-or-later
# SPDX-FileNotice: Based on standard VGA font
256 128
0000000000000000000000000000000000000000000000000000000000000000000000000000000000000000000000000000000000000000000000000000000000000000000000000000000000000000000000000000000000000000000000000000000000000000000000000000000000000000000000000000000000000000
0000000000000000000000000000000000000000000000000000000000000000000000000000000000000000000000000000000000000000010101010111111100000000000000000000000000000000000000000000000000000000000000000000000000000000000000000000000000000000000000000000000000000000
0000000000110000011110001100111000001000000000000000000000000000111001111111111100010000000000000001111100011111010101010111111101000000000000100001000011111110000000000001010000101000000100000001000000010000000000000000000000000000111111100000000000000000
0000000001110001110011010010100100011001000000000000000000000000111001111111111100111000000000001001100100011001010101010111111101100000000001100011100010000010000000000010100000010100000000000011100000010000000000000000000000000000111100110000000000000000
0000000011110001110011010010100100111001000000000000000000000000111001111101111101111100001111000101111100011111010101010111111101110000000011100111110010000010000000000101000000001010000100000111110000010000000010000001000000000000111100110001000011111110
0000000000110001000011010010100101111001000111000001111100000000111001111100111100010000011111100011100000011000010101010111111101111000000111100001000010000010000000000101000000001010000000000001000000010000000011000011000000011000111100110011100011111110
0000000000110001000110010010100111011001001101100001100001000100111001111100011100010000011111100001100000011000010101010111111101111100001111100001000000010010000000000101000000001010000100000001000000010000000011100111000000111100111111110011100001111100
0000000000110001001100010010111011111101000001100001100000101000111001111100001100010000011111100001100000011000010101010111111101111110011111100001000000110010101010100101000000001010000100000001000000010000111111111111111100111100100000010111110001111100
0000000000110001011000010010100000011001000011000001111000010000111001111100011100010000011111100001110000011000010101010111111101111100001111100000000001110010000000000101000000001010000100000001000000010000000011100111000000011000100000010111110000111000
0000000000110001110000010010100000011001000110000000001100010000111001111100111101111100001111000011101000111000010101010111111101111000000111100001000011111110000000000101000000001010011111000001000001111100000011000011000000000000111111111111111000111000
0000000000110001110011010010100000011001001100100011001100101000111001111101111100111000000000000111100101111000010101010111111101110000000011100000000001110000000000000010100000010100001110000001000000111000000010000001000000000000100000011111111000010000
0000000011111100111111001100100000111100101111101001111001000100111001111111111100010000000000000111000001110000010101010111111101100000000001100001000000110000000000000001010000101000000100000001000000010000000000000000000000000000111111110000000000000000
0000000000000000000000000000000000000000000000000000000000000000111001111111111100000000000000000000000000000000010101010111111101000000000000100000000000010000000000000000000000000000000000000000000000000000000000000000000000000000000000000000000000000000
0000000000000000000000000000000000000000000000000000000000000000000000000000000000000000000000000000000000000000000000000000000000000000000000000000000000000000000000000000000000000000000000000000000000000000000000000000000000000000000000000000000000000000
0000000000000000000000000000000000000000000000000000000000000000000000000000000000000000000000000000000000000000000000000000000000000000000000000000000000000000000000000000000000000000000000000000000000000000000000000000000000000000000000000000000000000000
0000000000000000000000000000000000000000000000000000000000000000000000000000000000000000000000000000000000000000000000000000000000000000000000000000000000000000000000000000000000000000000000000000000000000000000000000000000000000000000000000000000000000000
0000000000000000000000000000000000010000000000000000000000000000000000000000000000000000000000000000000000000000000000000000000000000000000000000000000000000000000000000000000000000000000000000000000000000000000000000000000000000000000000000000000000000000
0000000000000000001010000000000000010000000000000000000000010000000000000000000000000000000000000000000000000000000000000000000000000000000000000000000000000000000000000000000000000000000000000000000000000000000000000000000000000000000000000000000000000000
0000000000011000001010000000000001111100000000000011100000010000000010000001000000000000000000000000000000000000000000000000000000111000000110000111110001111100000011001111111000111000111111100111110001111100000000000000000000000000000000000000000001111100
0000000000111100001010000010100011010110000000000110110000010000000100000000100000000000000000000000000000000000000000000000000001101100001110001100011011000110000111001100000001100000110001101100011011000110000000000000000000000100000000000010000011000110
0000000000111100001010000010100011010010000000000110110000100000001000000000010000010000000000000000000000000000000000000000000011000110011110000000011000000110001111001100000011000000000001101100011011000110000000000000000000001000000000000001000011000110
0000000000111100001010000111110011010000110000100011100000000000001000000000010001010100000100000000000000000000000000000000001011000110000110000000110000000110011011001100000011000000000001101100011011000110000100000001000000010000001111000000100000001100
0000000000011000000000000010100001111100110001000111011000000000001000000000010000111000000100000000000000000000000000000000010011010110000110000001100000111100110011001111110011111100000011000111110001111110000000000000000000100000000000000000010000011000
0000000000011000000000000010100000010110000010001101110000000000001000000000010011111110011111000000000001111100000000000000100011010110000110000011000000000110111111100000011011000110000110001100011000000110000000000000000001000000000000000000001000011000
0000000000011000000000000010100000010110000100001100110000000000001000000000010000111000000100000000000000000000000000000001000011000110000110000110000000000110000011000000011011000110001100001100011000000110000000000000000000100000001111000000010000011000
0000000000000000000000000111110010010110001000001100110000000000001000000000010001010100000100000001000000000000000000000010000011000110000110001100000000000110000011000000011011000110001100001100011000000110000100000001000000010000000000000000100000000000
0000000000011000000000000010100011010110010001101100110000000000000100000000100000010000000000000001000000000000000000000100000001101100000110001100011011000110000011001100011011000110001100001100011000001100000000000001000000001000000000000001000000011000
0000000000011000000000000010100001111100100001100111011000000000000010000001000000000000000000000001000000000000000100001000000000111000011111101111111001111100000111100111110001111100001100000111110001111000000000000010000000000100000000000010000000011000
0000000000000000000000000000000000010000000000000000000000000000000000000000000000000000000000000010000000000000000000000000000000000000000000000000000000000000000000000000000000000000000000000000000000000000000000000000000000000000000000000000000000000000
0000000000000000000000000000000000010000000000000000000000000000000000000000000000000000000000000000000000000000000000000000000000000000000000000000000000000000000000000000000000000000000000000000000000000000000000000000000000000000000000000000000000000000
0000000000000000000000000000000000000000000000000000000000000000000000000000000000000000000000000000000000000000000000000000000000000000000000000000000000000000000000000000000000000000000000000000000000000000000000000000000000000000000000000000000000000000
0000000000000000000000000000000000000000000000000000000000000000000000000000000000000000000000000000000000000000000000000000000000000000000000000000000000000000000000000000000000000000000000000000000000000000000000000000000000000000000000000000000000000000
0000000000000000000000000000000000000000000000000000000000000000000000000000000000000000000000000000000000000000000000000000000000000000000000000000000000000000000000000000000000000000000000000000000000000000000000000000000000000000000000000000000000000000
0000000000000000000000000000000000000000000000000000000000000000000000000000000000000000000000000000000000000000000000000000000000000000000000000000000000000000000000000000000000000000000000000000000000000000000000000000000000000000000000000001000000000000
0000000000010000111111000011110011111000111111101111111000111100110001100011110000011110111001101111000011000110110001100111110011111100011111001111110001111100011111101100011011000110110001101100011001100110111111100011100000000000000111000011100000000000
0111110000111000011001100110011001101100011001100110011001100110110001100001100000001100011001100110000011101110111001101100011001100110110001100110011011000110011111101100011011000110110001101100011001100110110001100010000000000000000001000110110000000000
1100011001101100011001101100001001100110011000100110001011000010110001100001100000001100011001100110000011111110111101101100011001100110110001100110011011000110010110101100011011000110110001100110110001100110100001100010000000000000000001001100011000000000
1100011011000110011001101100000001100110011010000110100011000000110001100001100000001100011011000110000011111110111111101100011001100110110001100110011001100000000110001100011011000110110001100111110001100110000011000010000010000000000001000000000000000000
1101111011000110011111001100000001100110011110000111100011000000111111100001100000001100011110000110000011010110110111101100011001111100110001100111110000111000000110001100011011000110110101100011100000111100000110000010000001000000000001000000000000000000
1101111011111110011001101100000001100110011010000110100011011110110001100001100000001100011110000110000011000110110011101100011001100000110001100110110000001100000110001100011011000110110101100011100000011000001100000010000000100000000001000000000000000000
1101111011000110011001101100000001100110011000000110000011000110110001100001100011001100011011000110000011000110110001101100011001100000110001100110011000000110000110001100011011000110110101100111110000011000011000000010000000010000000001000000000000000000
1101110011000110011001101100001001100110011000100110000011000110110001100001100011001100011001100110001011000110110001101100011001100000110101100110011011000110000110001100011001101100111111100110110000011000110000100010000000001000000001000000000000000000
1100000011000110011001100110011001101100011001100110000001100110110001100001100011001100011001100110011011000110110001101100011001100000110111100110011011000110000110001100011000111000111011101100011000011000110001100010000000000100000001000000000000000000
0111110011000110111111000011110011111000111111101111000000111010110001100011110001111000111001101111111011000110110001100111110011110000011111001110011001111100001111000111110000010000011011001100011000111100111111100011100000000010000111000000000000000000
0000000000000000000000000000000000000000000000000000000000000000000000000000000000000000000000000000000000000000000000000000000000000000000011000000000000000000000000000000000000000000000000000000000000000000000000000000000000000000000000000000000000000000
0000000000000000000000000000000000000000000000000000000000000000000000000000000000000000000000000000000000000000000000000000000000000000000011100000000000000000000000000000000000000000000000000000000000000000000000000000000000000000000000000000000011111111
0000000000000000000000000000000000000000000000000000000000000000000000000000000000000000000000000000000000000000000000000000000000000000000000000000000000000000000000000000000000000000000000000000000000000000000000000000000000000000000000000000000000000000
0000000000000000000000000000000000000000000000000000000000000000000000000000000000000000000000000000000000000000000000000000000000000000000000000000000000000000000000000000000000000000000000000000000000000000000000000000000000000000000000000000000000000000
0001000000000000000000000000000000000000000000000000000000000000000000000000000000000000000000000000000000000000000000000000000000000000000000000000000000000000000000000000000000000000000000000000000000000000000000000000000000000000000000000000000000000000
0001000000000000000000000000000000000000000000000000000000000000000000000000000000000000000000000000000000000000000000000000000000000000000000000000000000000000000000000000000000000000000000000000000000000000000000000000000000000000000000000000000000000000
0000100000000000111000000000000000011100000000000011100000000000111000000000000000000000111000000011100000000000000000000000000000000000000000000000000000000000000100000000000000000000000000000000000000000000000000000000110000010000001100000111011000111110
0000000000000000011000000000000000001100000000000110110000000000011000000001100000000110011000000001100000000000000000000000000000000000000000000000000000000000001100000000000000000000000000000000000000000000000000000001000000010000000010001101110000000010
0000000000000000011000000000000000001100000000000110010000000000011000000000000000000000011000000001100000000000000000000000000000000000000000000000000000000000001100000000000000000000000000000000000000000000000000000001000000010000000010000000000000000010
0000000001111000011110000111110000111100011111000110000001110110011011000011100000001110011001100001100011101100110111000111110011011100011101101101110001111100111111001100110001100110110001101100011011000110111111100001000000010000000010000000000000000010
0000000000001100011011001100011001101100110001101111000011001100011101100001100000000110011011000001100011111110011001101100011001100110110011000111011011000110001100001100110001100110110001100110110011000110110011000110000000000000000001100000000000000010
0000000001111100011001101100000011001100111111100110000011001100011001100001100000000110011110000001100011010110011001101100011001100110110011000110011001100000001100001100110001100110110101100011100011000110000110000001000000010000000010000000000000010010
0000000011001100011001101100000011001100110000000110000011001100011001100001100000000110011110000001100011010110011001101100011001100110110011000110000000111000001100001100110001100110110101100011100011000110001100000001000000010000000010000000000000110010
0000000011001100011001101100000011001100110000000110000011001100011001100001100000000110011011000001100011010110011001101100011001100110110011000110000000001100001100001100110001100110110101100011100011000110011000000001000000010000000010000000000001111110
0000000011001100011001101100011011001100110001100110000011001100011001100001100000000110011001100001100011010110011001101100011001100110110011000110000011000110001101101100110000111100111111100110110011000110110001100001000000010000000010000000000000110000
0000000001110110011111000111110001110110011111001111000001111100111001100011110000000110111001100011110011000110011001100111110001111100011111001111000001111100000111000111011000011000011011001100011001111110111111100000110000010000001100000000000000010000
0000000000000000000000000000000000000000000000000000000000001100000000000000000001100110000000000000000000000000000000000000000001100000000011000000000000000000000000000000000000000000000000000000000000000110000000000000000000000000000000000000000000000000
0000000000000000000000000000000000000000000000000000000011001100000000000000000001100110000000000000000000000000000000000000000001100000000011000000000000000000000000000000000000000000000000000000000000001100000000000000000000000000000000000000000000000000
0000000000000000000000000000000000000000000000000000000001111000000000000000000000111100000000000000000000000000000000000000000011110000000111100000000000000000000000000000000000000000000000000000000011111000000000000000000000000000000000000000000000000000
0000000000000000000000000000000000000000000000000000000000000000000000000000000000000000000000000000000000000000000000000000000000000000000000000000000000000000000000000000000000000000000000000000000000000000000000000000000000000000000000000000000000000000
0000000000000000000000000000000000000000000000000000000000000000000000000000000000000000000000000000000000000000000000001111111111111111111111111111111111111111111111111111111111111111111111111111111111111111111111111111111111111111111111110001000000000000
0000000000000000000000000000000000000000000000000000000000000000000000000000000000000000000000000000000000000000111111111111111111111111111111111111111111111111111111111111111111111111111111111111111111111111111111111111111111111111000000000001000000000000
0000000000000000000000000000000000000000000000000000000000000000000000000000000000000000000000000000000011111111111111111111111111111111111111111111111111111111111111111111111111111111111111111111111111111111111111111111111100000000000000000001000000000000
0000000000000000000000000000000000000000000000000000000000000000000000000000000000000000000000001111111111111111111111111111111111111111111111111111111111111111111111111111111111111111111111111111111111111111111111110000000000000000000000000001000000000000
0000000000000000000000000000000000000000000000000000000000000000000000000000000000000000111111111111111111111111111111111111111111111111111111111111111111111111111111111111111111111111111111111111111111111111000000000000000000000000000000000001000000000000
0000000000000000000000000000000000000000000000000000000000000000000000000000000011111111111111111111111111111111111111111111111111111111111111111111111111111111111111111111111111111111111111111111111100000000000000000000000000000000000000000001000000000000
0000000000000000000000000000000000000000000000000000000000000000000000001111111111111111111111111111111111111111111111111111111111111111111111111111111111111111111111111111111111111111111111110000000000000000000000000000000000000000000000000001000000010001
0000000000000000000000000000000000000000000000000000000000000000111111111111111111111111111111111111111111111111111111111111111111111111111111111111111111111111111111111111111111111111000000000000000000000000000000000000000000000000000000000001000000001010
0000000000000000000000000000000000000000000000000000000011111111111111111111111111111111111111111111111111111111111111111111111111111111111111111111111111111111111111111111111100000000000000000000000000000000000000000000000000000000000000000001000000000100
0000000000000000000000000000000000000000000000001111111111111111111111111111111111111111111111111111111111111111111111111111111111111111111111111111111111111111111111110000000000000000000000000000000000000000000000000000000000000000000000000001000000000100
0000000000000000000000000000000000000000111111111111111111111111111111111111111111111111111111111111111111111111111111111111111111111111111111111111111111111111000000000000000000000000000000000000000000000000000000000000000000000000000000000001000000001010
0000000000000000000000000000000011111111111111111111111111111111111111111111111111111111111111111111111111111111111111111111111111111111111111111111111100000000000000000000000000000000000000000000000000000000000000000000000000000000000000000001000000010001
0000000000000000000000001111111111111111111111111111111111111111111111111111111111111111111111111111111111111111111111111111111111111111111111110000000000000000000000000000000000000000000000000000000000000000000000000000000000000000000000000001000000000000
0000000000000000111111111111111111111111111111111111111111111111111111111111111111111111111111111111111111111111111111111111111111111111000000000000000000000000000000000000000000000000000000000000000000000000000000000000000000000000000000000001000000000000
0000000011111111111111111111111111111111111111111111111111111111111111111111111111111111111111111111111111111111111111111111111100000000000000000000000000000000000000000000000000000000000000000000000000000000000000000000000000000000000000000001000000000000
1111111111111111111111111111111111111111111111111111111111111111111111111111111111111111111111111111111111111111111111110000000000000000000000000000000000000000000000000000000000000000000000000000000000000000000000000000000000000000000000000111110000000000
0000000000000000000000000000000000000000000000000000000000000000000000000001000000000000000000000001010101100110000000000001000000010001010101011101110100010000000100000001000000111100000000000000000000111100001111000000000000111100001111000001000000000000
0000000000000000000000000000000000000000000000000000000000000000000000000001000000000000000000000000000010010101000000000000000001000100101010100111011100010000000100000001000000111100000000000000000000111100001111000000000000111100001111000001000000000000
1100110001001100111011101110010010101010000000000000000000000000000000000001000000000000000000000001000010010101100100000001000000010001010101011101110100010000000100000001000000111100000000000000000000111100001111000000000000111100001111000001000000000000
1010101010101010010001000100101010101010000000000000000000000000000000000001000000000000000000000000000010010110100100000000000001000100101010100111011100010000000100000001000000111100000000000000000000111100001111000000000000111100001111000001000000000000
1010101010101010010001000100101010101010000000000000000000000000000000000001000000000000000000000001000010010100100100000001000000010001010101011101110100010000000100000001000000111100000000000000000000111100001111000000000000111100001111000001000000000000
1010101010001010010001000100100010101010111111111111111111111111111111111111111101100000111111000000000001100100100100000000000001000100101010100111011100010000000100001111000000111100000000001111000011111100001111001111110011111100001111001111000000000000
1100101010001010010001000100100011101110111111111111111111111111111111111111111101100000110001100000110000000000111100000000000000010001010101011101110100010000000100001111000000111100000000001111000011111100001111001111110011111100001111001111000000000000
1010101001001010010001000100100010101010111111111111111111111111111111111111111101100000110001100001110000010000111101110011100001000100101010100111011100010000111100001111000011111100111111001111000011111100001111001111110011111100111111001111000011110000
1010101000101010010001000100100010101010000000000000000000000000000000000000000001100000111111000011110000000000100100010011100000010001010101011101110100010000000100000001000000111100001111000001000000111100001111000011110000000000000000000000000000010000
1010101000101010010001000100100010101010100000001010000010101000101010101010101001100000110011000110110000010000100100100011100001000100101010100111011100010000000100000001000000111100001111000001000000111100001111000011110000000000000000000000000000010000
1010101010101010010001000100101010101010100000001010000010101000101010101010101001100000110001100111111000000000100101000000000000010001010101011101110100010000000100000001000000111100001111000001000000111100001111000011110000000000000000000000000000010000
1100110001001100010001000100010010101010100000001010000010101000101010101010101001111110110001100000110000010000100101110000000001000100101010100111011100010000000100000001000000111100001111000001000000111100001111000011110000000000000000000000000000010000
0000000000000000000000000000000000000000100000001010000010101000101010101010101000000000000000000000110000000000000000000000000000010001010101011101110100010000000100000001000000111100001111000001000000111100001111000011110000000000000000000000000000010000
0000000000000000000000000000000000000000100000001010000010101000101010101010101000000000000000000000110000010101000000000000000001000100101010100111011100010000000100000001000000111100001111000001000000111100001111000011110000000000000000000000000000010000
0000000000000000000000000000000000000000100000001010000010101000101010101010101000000000000000000001111000000000000000000000000000010001010101011101110100010000000100000001000000111100001111000001000000111100001111000011110000000000000000000000000000010000
0000000000000000000000000000000000000000000000000000000000000000000000000000000000000000000000000000000000000000000000000000000001000100101010100111011100010000000100000001000000111100001111000001000000111100001111000011110000000000000000000000000000010000
0001000000010000000000000001000000000000000100000001000000111100001111000000000000111100000000000011110000000000001111000001000000111100000000000000000000111100000100000000000000000000001111000001000000010000000000001111111100000000111100000000111111111111
0001000000010000000000000001000000000000000100000001000000111100001111000000000000111100000000000011110000000000001111000001000000111100000000000000000000111100000100000000000000000000001111000001000000010000000000001111111100000000111100000000111111111111
0001000000010000000000000001000000000000000100000001000000111100001111000000000000111100000000000011110000000000001111000001000000111100000000000000000000111100000100000000000000000000001111000001000000010000000000001111111100000000111100000000111111111111
0001000000010000000000000001000000000000000100000001000000111100001111000000000000111100000000000011110000000000001111000001000000111100000000000000000000111100000100000000000000000000001111000001000000010000000000001111111100000000111100000000111111111111
0001000000010000000000000001000000000000000100000001000000111100001111000000000000111100000000000011110000000000001111000001000000111100000000000000000000111100000100000000000000000000001111000001000000010000000000001111111100000000111100000000111111111111
0001000000010000000000000001000000000000000100000001111100111100001111110011111111111111111111110011111111111111111111111111111100111100111111110000000000111100000111110001111100000000001111001111111100010000000000001111111100000000111100000000111111111111
0001000000010000000000000001000000000000000100000001111100111100001111110011111111111111111111110011111111111111111111111111111100111100111111110000000000111100000111110001111100000000001111001111111100010000000000001111111100000000111100000000111111111111
0001111111111111111111110001111111111111111111110001111100111111001111110011111111111111111111110011111111111111111111111111111111111111111111111111111100111111000111110001111100111111111111111111111111110000000111111111111111111111111100000000111100000000
0000000000000000000100000001000000000000000100000001000000111100000000000011110000000000001111000011110000000000001111000000000000000000000100000011110000000000000000000001000000111100001111000001000000000000000100001111111111111111111100000000111100000000
0000000000000000000100000001000000000000000100000001000000111100000000000011110000000000001111000011110000000000001111000000000000000000000100000011110000000000000000000001000000111100001111000001000000000000000100001111111111111111111100000000111100000000
0000000000000000000100000001000000000000000100000001000000111100000000000011110000000000001111000011110000000000001111000000000000000000000100000011110000000000000000000001000000111100001111000001000000000000000100001111111111111111111100000000111100000000
0000000000000000000100000001000000000000000100000001000000111100000000000011110000000000001111000011110000000000001111000000000000000000000100000011110000000000000000000001000000111100001111000001000000000000000100001111111111111111111100000000111100000000
0000000000000000000100000001000000000000000100000001000000111100000000000011110000000000001111000011110000000000001111000000000000000000000100000011110000000000000000000001000000111100001111000001000000000000000100001111111111111111111100000000111100000000
0000000000000000000100000001000000000000000100000001000000111100000000000011110000000000001111000011110000000000001111000000000000000000000100000011110000000000000000000001000000111100001111000001000000000000000100001111111111111111111100000000111100000000
0000000000000000000100000001000000000000000100000001000000111100000000000011110000000000001111000011110000000000001111000000000000000000000100000011110000000000000000000001000000111100001111000001000000000000000100001111111111111111111100000000111100000000
0000000000000000000100000001000000000000000100000001000000111100000000000011110000000000001111000011110000000000001111000000000000000000000100000011110000000000000000000001000000111100001111000001000000000000000100001111111111111111111100000000111100000000
0001000000010000000100000001000000010000000100000001000000010000000100000001000000010000000100000001000000010000000100000001000000000001000000000000000000010000000110000011100000010000000000010001010100000000000000000000000000000000000000000000000000000000
0000000000000000000000000000000000000000000000000000000000000000000000000000000000000000000000000000000000000000000000001111111100000001000000000000000000000000001110000110110000000000000000000000000000000000000000000000000000001000000000000000000000000000
0001000000010000000100000001000000010000000100000001000000010000000100000001000000010000000100000001000000010000111111111111111100000001000000000000000000010000011110000110110000010000000000010001000000000000000000000000000100011100000000000000000000000000
0000000000000000000000000000000000000000000000000000000000000000000000000000000000000000000000000000000011111111111111111111111100000001000100000000000000000000000110000001100000000000000000000000000000000000000000000000001100111110000000000000000000000000
0001000000010000000100000001000000010000000100000001000000010000000100000001000000010000000100001111111111111111111111111111111100000001000100000000000000010000000110100011001000010000000000010001000000000000000000000000001001111111000000000111110000000000
0000000000000000000000000000000000000000000000000000000000000000000000000000000000000000111111111111111111111111111111111111111100000001000100000000000000000000000111000111110000000000000000000000000000010000000000000000011011111111111111110111110000000000
1001001010010010100100101001001010010010100100101001001010010010100100101001001011111111111111111111111111111111111111111111111100000001000100000000000000010000000010000000100000010000000000010001000000101000000000000000010011111111111111110111110000000000
0000000000000000000000000000000000000000000000000000000000000000000000001111111111111111111111111111111111111111111111111111111100000001000100001111111111111111000100000001000000000000000000000000000000101000000100001100110011111111111111110111110000000000
0001000000010000000100000001000000010000000100000001000000010000111111111111111111111111111111111111111111111111111111111111111100000001000100000001000000000000001000000010000000010000000000010001000000101000000000001100100000000000011111110111110000000000
0000000000000000000000000000000000000000000000000000000011111111111111111111111111111111111111111111111111111111111111111111111100000001000100000000000000000000000000000000000000000000000000000000000000010000000000000101100000000000001111100111110000000000
0001000000010000000100000001000000010000000100001111111111111111111111111111111111111111111111111111111111111111111111111111111100000001000100000001000000000000000000000000000000010000000000010001000000000000000000000111000000000000000111000111110000000000
0000000000000000000000000000000000000000111111111111111111111111111111111111111111111111111111111111111111111111111111111111111100000001000100000000000000000000000000000000000000000000000000000000000000000000000000000011000000000000000010000000000000000000
0001000000010000000100000001000011111111111111111111111111111111111111111111111111111111111111111111111111111111111111111111111100000001000000000001000000000000000000000000000000010000000000010001000000000000000000000000000000000000000000000000000000000000
0000000000000000000000001111111111111111111111111111111111111111111111111111111111111111111111111111111111111111111111111111111100000001000000000000000000000000000000000000000000000000000000000000000000000000000000000000000000000000000000000000000000000000
1001001000010000111111111111111111111111111111111111111111111111111111111111111111111111111111111111111111111111111111111111111100000001000000001001001000000000000000000000000000010000000000010001000000000000000000000000000000000000000000000000000000000000
0000000011111111111111111111111111111111111111111111111111111111111111111111111111111111111111111111111111111111111111111111111100000001000000000000000000000000000000000000000000000000000000000000000000000000000000000000000000000000000000000000000000000000
